<?xml version="1.0" encoding="UTF-8" standalone="no"?> <!-- Created with Vectornator for iOS (http://vectornator.io/) --><!DOCTYPE svg PUBLIC "-//W3C//DTD SVG 1.1//EN" "http://www.w3.org/Graphics/SVG/1.1/DTD/svg11.dtd">
<svg style="fill-rule:evenodd;clip-rule:evenodd;stroke-linecap:round;stroke-linejoin:round;" xmlns:vectornator="http://vectornator.io" xmlns:xlink="http://www.w3.org/1999/xlink" xmlns="http://www.w3.org/2000/svg" xml:space="preserve" version="1.1" viewBox="0 0 880 300">
<metadata>
<vectornator:setting key="DisplayWhiteBackground" value="0"/>
<vectornator:setting key="RulersVisible" value="1"/>
<vectornator:setting key="GridSpacing" value="36"/>
<vectornator:setting key="Units" value="Pixels"/>
<vectornator:setting key="DynamicGuides" value="1"/>
<vectornator:setting key="SnapToPoints" value="0"/>
<vectornator:setting key="SnapToGrid" value="0"/>
<vectornator:setting key="SnapToGuides" value="1"/>
<vectornator:setting key="SnapToEdges" value="0"/>
</metadata>
<defs/>
<g id="Layer 2" vectornator:layerName="Layer 2">
<g opacity="1">
<path d="M358.366+127.051C356.816+127.848+355.19+128.445+353.485+128.844C351.781+129.242+349.988+129.441+348.106+129.441C341.421+129.441+336.319+127.239+332.8+122.834C329.28+118.429+327.52+112.065+327.52+103.742C327.52+95.397+329.28+89.022+332.8+84.6171C336.319+80.2121+341.421+78.0096+348.106+78.0096C349.988+78.0096+351.792+78.2089+353.518+78.6073C355.245+79.0057+356.861+79.6034+358.366+80.4003L358.366+91.2909C356.684+89.7414+355.051+88.607+353.468+87.8876C351.886+87.1682+350.253+86.8085+348.571+86.8085C344.985+86.8085+342.279+88.2307+340.453+91.0751C338.627+93.9195+337.714+98.1418+337.714+103.742C337.714+109.32+338.627+113.531+340.453+116.376C342.279+119.22+344.985+120.642+348.571+120.642C350.253+120.642+351.886+120.283+353.468+119.563C355.051+118.844+356.684+117.71+358.366+116.16L358.366+127.051Z" opacity="1" fill="#000000"/>
<path d="M383.866+98.2967C381.542+98.2967+379.716+99.3205+378.387+101.368C377.059+103.416+376.395+106.265+376.395+109.918C376.395+113.57+377.059+116.42+378.387+118.468C379.716+120.515+381.542+121.539+383.866+121.539C386.212+121.539+388.05+120.515+389.378+118.468C390.706+116.42+391.37+113.57+391.37+109.918C391.37+106.265+390.706+103.416+389.378+101.368C388.05+99.3205+386.212+98.2967+383.866+98.2967ZM366.667+109.918C366.667+103.919+368.222+99.1656+371.332+95.6571C374.442+92.1486+378.62+90.3944+383.866+90.3944C389.134+90.3944+393.323+92.1486+396.433+95.6571C399.543+99.1656+401.098+103.919+401.098+109.918C401.098+115.917+399.543+120.67+396.433+124.179C393.323+127.687+389.134+129.441+383.866+129.441C378.62+129.441+374.442+127.687+371.332+124.179C368.222+120.67+366.667+115.917+366.667+109.918Z" opacity="1" fill="#000000"/>
<path d="M439.913+104.34L439.913+128.478L430.251+128.478L430.251+105.834C430.251+103.133+429.869+101.202+429.105+100.04C428.342+98.8778+427.096+98.2967+425.37+98.2967C423.621+98.2967+422.243+99.0826+421.236+100.654C420.229+102.226+419.725+104.406+419.725+107.195L419.725+128.478L410.063+128.478L410.063+91.2909L419.725+91.2909L419.725+96.869C420.412+94.8104+421.585+93.2167+423.245+92.0878C424.905+90.9589+426.908+90.3944+429.255+90.3944C432.774+90.3944+435.43+91.562+437.223+93.8973C439.016+96.2326+439.913+99.7134+439.913+104.34Z" opacity="1" fill="#000000"/>
<path d="M480.52+126.586C478.882+127.538+477.122+128.252+475.241+128.727C473.359+129.203+471.334+129.441+469.165+129.441C463.432+129.441+458.949+127.715+455.717+124.262C452.486+120.808+450.87+116.027+450.87+109.918C450.87+103.786+452.497+98.9885+455.751+95.5243C459.005+92.0601+463.498+90.328+469.231+90.328C471.223+90.328+473.144+90.5604+474.992+91.0253C476.84+91.4901+478.683+92.2095+480.52+93.1835L480.52+102.082C479.104+100.864+477.549+99.9292+475.855+99.2762C474.162+98.6232+472.408+98.2967+470.592+98.2967C467.427+98.2967+464.992+99.3039+463.288+101.318C461.583+103.333+460.731+106.199+460.731+109.918C460.731+113.637+461.583+116.492+463.288+118.484C464.992+120.476+467.427+121.473+470.592+121.473C472.474+121.473+474.234+121.157+475.872+120.526C477.51+119.895+479.059+118.938+480.52+117.654L480.52+126.586Z" opacity="1" fill="#000000"/>
<path d="M522.821+126.652C520.563+127.582+518.261+128.279+515.915+128.744C513.568+129.209+511.089+129.441+508.477+129.441C502.257+129.441+497.504+127.776+494.217+124.444C490.929+121.113+489.286+116.315+489.286+110.051C489.286+103.986+490.869+99.1932+494.034+95.6737C497.199+92.1542+501.516+90.3944+506.983+90.3944C512.495+90.3944+516.773+92.0269+519.816+95.2919C522.86+98.5568+524.382+103.155+524.382+109.088L524.382+113.039L499.18+113.039C499.203+115.961+500.066+118.141+501.77+119.58C503.475+121.019+506.02+121.738+509.407+121.738C511.643+121.738+513.845+121.417+516.014+120.775C518.184+120.133+520.453+119.115+522.821+117.721L522.821+126.652ZM514.587+105.734C514.542+103.167+513.884+101.224+512.611+99.9071C511.338+98.59+509.462+97.9315+506.983+97.9315C504.747+97.9315+502.966+98.6122+501.637+99.9735C500.309+101.335+499.523+103.266+499.28+105.767L514.587+105.734Z" opacity="1" fill="#000000"/>
<path d="M541.846+123.232L541.846+142.623L532.151+142.623L532.151+91.2909L541.846+91.2909L541.846+96.869C542.865+94.7219+544.204+93.106+545.864+92.0214C547.524+90.9367+549.472+90.3944+551.708+90.3944C555.958+90.3944+559.256+92.0988+561.602+95.5077C563.949+98.9165+565.122+103.72+565.122+109.918C565.122+116.204+563.932+121.03+561.552+124.394C559.173+127.759+555.781+129.441+551.376+129.441C549.384+129.441+547.596+128.927+546.013+127.897C544.431+126.868+543.042+125.313+541.846+123.232ZM555.393+109.851C555.393+106.265+554.796+103.454+553.6+101.418C552.405+99.3814+550.756+98.3632+548.653+98.3632C546.55+98.3632+544.89+99.3814+543.673+101.418C542.455+103.454+541.846+106.265+541.846+109.851C541.846+113.437+542.455+116.249+543.673+118.285C544.89+120.321+546.55+121.34+548.653+121.34C550.756+121.34+552.405+120.321+553.6+118.285C554.796+116.249+555.393+113.437+555.393+109.851Z" opacity="1" fill="#000000"/>
<path d="M591.02+80.7323L591.02+91.2909L603.737+91.2909L603.737+98.7616L591.02+98.7616L591.02+116.359C591.02+118.019+591.424+119.209+592.232+119.929C593.04+120.648+594.385+121.008+596.266+121.008L603.737+121.008L603.737+128.478L595.569+128.478C589.991+128.478+586.217+127.587+584.247+125.806C582.277+124.024+581.292+120.72+581.292+115.894L581.292+98.7616L571.796+98.7616L571.796+91.2909L581.292+91.2909L581.292+80.7323L591.02+80.7323Z" opacity="1" fill="#000000"/>
<path d="M613.001+78.9061L623.526+78.9061L637.339+114.932L637.339+78.9061L645.971+78.9061L645.971+128.478L635.512+128.478L621.634+92.453L621.634+128.478L613.001+128.478L613.001+78.9061Z" opacity="1" fill="#000000"/>
<path d="M686.579+126.652C684.321+127.582+682.019+128.279+679.673+128.744C677.326+129.209+674.847+129.441+672.235+129.441C666.015+129.441+661.261+127.776+657.974+124.444C654.687+121.113+653.044+116.315+653.044+110.051C653.044+103.986+654.626+99.1932+657.792+95.6737C660.957+92.1542+665.273+90.3944+670.741+90.3944C676.253+90.3944+680.53+92.0269+683.574+95.2919C686.618+98.5568+688.139+103.155+688.139+109.088L688.139+113.039L662.938+113.039C662.96+115.961+663.824+118.141+665.528+119.58C667.232+121.019+669.778+121.738+673.165+121.738C675.4+121.738+677.603+121.417+679.772+120.775C681.941+120.133+684.21+119.115+686.579+117.721L686.579+126.652ZM678.344+105.734C678.3+103.167+677.642+101.224+676.369+99.9071C675.096+98.59+673.22+97.9315+670.741+97.9315C668.505+97.9315+666.723+98.6122+665.395+99.9735C664.067+101.335+663.281+103.266+663.038+105.767L678.344+105.734Z" opacity="1" fill="#000000"/>
<path d="M713.839+80.7323L713.839+91.2909L726.555+91.2909L726.555+98.7616L713.839+98.7616L713.839+116.359C713.839+118.019+714.243+119.209+715.051+119.929C715.858+120.648+717.203+121.008+719.085+121.008L726.555+121.008L726.555+128.478L718.387+128.478C712.809+128.478+709.035+127.587+707.065+125.806C705.095+124.024+704.11+120.72+704.11+115.894L704.11+98.7616L694.614+98.7616L694.614+91.2909L704.11+91.2909L704.11+80.7323L713.839+80.7323Z" opacity="1" fill="#000000"/>
<path d="M336.817+166.894L336.817+198.803L339.473+198.803C343.325+198.803+346.07+197.591+347.708+195.167C349.346+192.743+350.165+188.62+350.165+182.799C350.165+177.021+349.346+172.926+347.708+170.514C346.07+168.101+343.325+166.894+339.473+166.894L336.817+166.894ZM327.022+158.062L337.514+158.062C345.616+158.062+351.449+159.994+355.012+163.856C358.576+167.719+360.358+174.033+360.358+182.799C360.358+191.586+358.576+197.923+355.012+201.807C351.449+205.692+345.616+207.635+337.514+207.635L327.022+207.635L327.022+158.062Z" opacity="1" fill="#000000"/>
<path d="M370.751+170.447L390.009+170.447L390.009+200.164L402.094+200.164L402.094+207.635L368.161+207.635L368.161+200.164L380.28+200.164L380.28+177.918L370.751+177.918L370.751+170.447ZM380.28+152.351L390.009+152.351L390.009+163.707L380.28+163.707L380.28+152.351Z" opacity="1" fill="#000000"/>
<path d="M437.257+171.609L437.257+180.109C435.464+178.958+433.599+178.089+431.662+177.503C429.725+176.916+427.783+176.623+425.835+176.623C423.665+176.623+422.027+176.938+420.921+177.569C419.814+178.2+419.26+179.135+419.26+180.375C419.26+182.146+421.629+183.585+426.366+184.691L426.731+184.791L429.52+185.455C433.062+186.296+435.657+187.652+437.306+189.522C438.955+191.393+439.78+193.922+439.78+197.109C439.78+200.939+438.524+203.811+436.011+205.725C433.499+207.64+429.719+208.598+424.673+208.598C422.437+208.598+420.146+208.404+417.8+208.016C415.453+207.629+413.074+207.048+410.661+206.273L410.661+197.773C412.808+198.991+414.994+199.92+417.218+200.562C419.443+201.204+421.596+201.525+423.676+201.525C425.956+201.525+427.683+201.193+428.856+200.529C430.029+199.865+430.616+198.902+430.616+197.64C430.616+196.401+430.201+195.449+429.371+194.785C428.541+194.121+426.565+193.413+423.444+192.66L420.755+192.062C417.036+191.221+414.324+189.904+412.62+188.111C410.915+186.318+410.063+183.917+410.063+180.906C410.063+177.32+411.358+174.531+413.948+172.539C416.538+170.547+420.179+169.551+424.872+169.551C426.975+169.551+429.072+169.722+431.164+170.065C433.256+170.408+435.287+170.923+437.257+171.609Z" opacity="1" fill="#000000"/>
<path d="M480.52+205.742C478.882+206.694+477.122+207.408+475.241+207.884C473.359+208.36+471.334+208.598+469.165+208.598C463.432+208.598+458.949+206.871+455.717+203.418C452.486+199.965+450.87+195.183+450.87+189.074C450.87+182.943+452.497+178.145+455.751+174.681C459.005+171.216+463.498+169.484+469.231+169.484C471.223+169.484+473.144+169.717+474.992+170.182C476.84+170.646+478.683+171.366+480.52+172.34L480.52+181.238C479.104+180.021+477.549+179.085+475.855+178.432C474.162+177.779+472.408+177.453+470.592+177.453C467.427+177.453+464.992+178.46+463.288+180.474C461.583+182.489+460.731+185.355+460.731+189.074C460.731+192.793+461.583+195.648+463.288+197.64C464.992+199.633+467.427+200.629+470.592+200.629C472.474+200.629+474.234+200.313+475.872+199.682C477.51+199.052+479.059+198.094+480.52+196.81L480.52+205.742Z" opacity="1" fill="#000000"/>
<path d="M524.448+180.707C523.385+179.733+522.14+179.002+520.713+178.515C519.285+178.029+517.719+177.785+516.014+177.785C513.956+177.785+512.157+178.145+510.619+178.864C509.08+179.584+507.891+180.629+507.05+182.002C506.518+182.843+506.148+183.861+505.937+185.057C505.727+186.252+505.622+188.067+505.622+190.502L505.622+207.635L495.893+207.635L495.893+170.447L505.622+170.447L505.622+176.224C506.574+174.099+508.035+172.456+510.005+171.294C511.975+170.132+514.277+169.551+516.911+169.551C518.239+169.551+519.539+169.711+520.812+170.032C522.085+170.353+523.297+170.823+524.448+171.443L524.448+180.707Z" opacity="1" fill="#000000"/>
<path d="M534.509+170.447L553.766+170.447L553.766+200.164L565.852+200.164L565.852+207.635L531.919+207.635L531.919+200.164L544.038+200.164L544.038+177.918L534.509+177.918L534.509+170.447ZM544.038+152.351L553.766+152.351L553.766+163.707L544.038+163.707L544.038+152.351Z" opacity="1" fill="#000000"/>
<path d="M591.02+174.166C591.751+172.594+592.68+171.432+593.809+170.68C594.938+169.927+596.322+169.551+597.96+169.551C601.169+169.551+603.388+170.657+604.617+172.871C605.845+175.085+606.46+179.689+606.46+186.683L606.46+207.635L598.491+207.635L598.491+183.762C598.491+180.995+598.281+179.146+597.86+178.217C597.44+177.287+596.676+176.822+595.569+176.822C594.462+176.822+593.688+177.298+593.245+178.25C592.802+179.202+592.581+181.039+592.581+183.762L592.581+207.635L584.712+207.635L584.712+183.762C584.712+181.039+584.49+179.202+584.048+178.25C583.605+177.298+582.83+176.822+581.723+176.822C580.617+176.822+579.853+177.287+579.432+178.217C579.012+179.146+578.801+180.995+578.801+183.762L578.801+207.635L570.833+207.635L570.833+170.447L577.905+170.447L577.905+174.299C578.458+172.838+579.344+171.681+580.561+170.829C581.779+169.977+583.14+169.551+584.645+169.551C586.15+169.551+587.523+169.999+588.762+170.895C590.002+171.792+590.755+172.882+591.02+174.166Z" opacity="1" fill="#000000"/>
<path d="M616.387+170.447L635.645+170.447L635.645+200.164L647.731+200.164L647.731+207.635L613.798+207.635L613.798+200.164L625.917+200.164L625.917+177.918L616.387+177.918L616.387+170.447ZM625.917+152.351L635.645+152.351L635.645+163.707L625.917+163.707L625.917+152.351Z" opacity="1" fill="#000000"/>
<path d="M685.55+183.496L685.55+207.635L675.887+207.635L675.887+184.99C675.887+182.29+675.506+180.358+674.742+179.196C673.978+178.034+672.733+177.453+671.007+177.453C669.258+177.453+667.88+178.239+666.873+179.81C665.866+181.382+665.362+183.562+665.362+186.351L665.362+207.635L655.7+207.635L655.7+170.447L665.362+170.447L665.362+176.025C666.048+173.967+667.221+172.373+668.882+171.244C670.542+170.115+672.545+169.551+674.891+169.551C678.411+169.551+681.067+170.718+682.86+173.054C684.653+175.389+685.55+178.87+685.55+183.496Z" opacity="1" fill="#000000"/>
<path d="M714.171+190.17C710.54+190.17+708.006+190.635+706.567+191.564C705.128+192.494+704.409+194.088+704.409+196.346C704.409+198.028+704.907+199.367+705.903+200.363C706.899+201.359+708.249+201.857+709.954+201.857C712.522+201.857+714.514+200.889+715.93+198.952C717.347+197.015+718.055+194.309+718.055+190.834L718.055+190.17L714.171+190.17ZM727.717+186.418L727.717+207.635L718.055+207.635L718.055+203.484C716.882+205.122+715.377+206.384+713.54+207.269C711.703+208.155+709.677+208.598+707.464+208.598C703.236+208.598+699.943+207.48+697.586+205.244C695.228+203.008+694.05+199.887+694.05+195.881C694.05+191.542+695.455+188.338+698.266+186.268C701.078+184.199+705.427+183.164+711.315+183.164L718.055+183.164L718.055+181.537C718.055+179.965+717.485+178.776+716.345+177.968C715.205+177.16+713.529+176.756+711.315+176.756C708.991+176.756+706.739+177.049+704.558+177.636C702.378+178.222+700.104+179.157+697.735+180.441L697.735+172.14C699.882+171.255+702.063+170.602+704.276+170.182C706.49+169.761+708.836+169.551+711.315+169.551C717.358+169.551+721.603+170.779+724.049+173.236C726.495+175.693+727.717+180.087+727.717+186.418Z" opacity="1" fill="#000000"/>
<path d="M754.778+159.889L754.778+170.447L767.495+170.447L767.495+177.918L754.778+177.918L754.778+195.515C754.778+197.176+755.182+198.365+755.99+199.085C756.798+199.804+758.143+200.164+760.024+200.164L767.495+200.164L767.495+207.635L759.327+207.635C753.749+207.635+749.975+206.744+748.005+204.962C746.035+203.18+745.05+199.876+745.05+195.051L745.05+177.918L735.553+177.918L735.553+170.447L745.05+170.447L745.05+159.889L754.778+159.889Z" opacity="1" fill="#000000"/>
<path d="M793.26+177.453C790.936+177.453+789.11+178.477+787.782+180.524C786.454+182.572+785.79+185.422+785.79+189.074C785.79+192.726+786.454+195.576+787.782+197.624C789.11+199.671+790.936+200.695+793.26+200.695C795.607+200.695+797.444+199.671+798.772+197.624C800.1+195.576+800.764+192.726+800.764+189.074C800.764+185.422+800.1+182.572+798.772+180.524C797.444+178.477+795.607+177.453+793.26+177.453ZM776.061+189.074C776.061+183.075+777.616+178.322+780.726+174.813C783.836+171.305+788.014+169.551+793.26+169.551C798.529+169.551+802.718+171.305+805.828+174.813C808.938+178.322+810.493+183.075+810.493+189.074C810.493+195.073+808.938+199.826+805.828+203.335C802.718+206.843+798.529+208.598+793.26+208.598C788.014+208.598+783.836+206.843+780.726+203.335C777.616+199.826+776.061+195.073+776.061+189.074Z" opacity="1" fill="#000000"/>
<path d="M851.964+180.707C850.901+179.733+849.656+179.002+848.228+178.515C846.801+178.029+845.234+177.785+843.53+177.785C841.471+177.785+839.673+178.145+838.134+178.864C836.596+179.584+835.406+180.629+834.565+182.002C834.034+182.843+833.663+183.861+833.453+185.057C833.243+186.252+833.137+188.067+833.137+190.502L833.137+207.635L823.409+207.635L823.409+170.447L833.137+170.447L833.137+176.224C834.089+174.099+835.55+172.456+837.52+171.294C839.49+170.132+841.792+169.551+844.426+169.551C845.755+169.551+847.055+169.711+848.328+170.032C849.601+170.353+850.813+170.823+851.964+171.443L851.964+180.707Z" opacity="1" fill="#000000"/>
</g>
<g opacity="1">
<path stroke="#e40000" stroke-opacity="0.25" stroke-width="11.97" d="M18.6413+106.161C18.6413+94.5246+28.0749+85.091+39.7118+85.091C51.3488+85.091+60.7824+94.5246+60.7824+106.161C60.7824+117.798+51.3488+127.232+39.7118+127.232C28.0749+127.232+18.6413+117.798+18.6413+106.161Z" fill="#e40000" stroke-linecap="round" opacity="1" stroke-linejoin="round"/>
<path stroke="#00a4e4" stroke-opacity="0.515625" stroke-width="11.97" d="M235.108+33.6985C235.108+22.0616+244.541+12.628+256.178+12.628C267.815+12.628+277.249+22.0616+277.249+33.6985C277.249+45.3355+267.815+54.769+256.178+54.769C244.541+54.769+235.108+45.3355+235.108+33.6985Z" fill="#00a4e4" stroke-linecap="round" opacity="1" stroke-linejoin="round"/>
<g opacity="1">
<path d="M112.398+250.752L164.218+206.945" fill="#6e7606"/>
<g>
<path stroke-linecap="round" stroke-width="4.4" stroke="#00a4e4" d="M152.452+216.892C148.224+220.466+112.398+250.752+112.398+250.752" fill="none" stroke-linejoin="round"/>
<path d="M149.512+219.377L150.633+238.594L164.213+206.95L130.749+215.073L149.512+219.377Z" fill="#00a4e4"/>
</g>
</g>
<g opacity="1">
<path d="M186.642+177.195L243.455+63.7249" fill="#00e40b"/>
<g>
<path stroke-linecap="round" stroke-width="4.4" stroke="#00a4e4" d="M236.555+77.5051C231.095+88.4104+186.642+177.195+186.642+177.195" fill="none" stroke-linejoin="round"/>
<path d="M234.832+80.9477L243.431+98.1701L243.45+63.7347L215.89+84.3808L234.832+80.9477Z" fill="#00a4e4"/>
</g>
</g>
<g opacity="1">
<path d="M111.711+250.064L53.2005+136.606" fill="#b92b02"/>
<g>
<path stroke="#e40000" stroke-width="4.4" d="M60.2644+150.304C65.8884+161.21+111.711+250.064+111.711+250.064" fill="none" stroke-linecap="round" stroke-linejoin="round" stroke-dasharray="11"/>
<path d="M62.029+153.726L81.01+156.933L53.2059+136.617L53.6356+171.05L62.029+153.726Z" fill="#e40000"/>
</g>
</g>
<path stroke="#00a4e4" stroke-opacity="0.46875" stroke-width="11.97" d="M90.7968+251.087C90.7968+239.45+100.23+230.017+111.867+230.017C123.504+230.017+132.938+239.45+132.938+251.087C132.938+262.724+123.504+272.158+111.867+272.158C100.23+272.158+90.7968+262.724+90.7968+251.087Z" fill="#00a4e4" stroke-linecap="round" opacity="1" stroke-linejoin="round"/>
<path stroke="#00a4e4" stroke-opacity="0.515625" stroke-width="11.97" d="M162.952+178.624C162.952+166.988+172.386+157.554+184.023+157.554C195.66+157.554+205.093+166.988+205.093+178.624C205.093+190.261+195.66+199.695+184.023+199.695C172.386+199.695+162.952+190.261+162.952+178.624Z" fill="#00a4e4" stroke-linecap="round" opacity="1" stroke-linejoin="round"/>
</g>
</g>
</svg>
